<svg xmlns="http://www.w3.org/2000/svg" viewBox="0 0 23.26 21.31"><defs><style>.\35 8a1c104-4d7f-490b-8a96-48abe1936337,.\36 507d983-493b-46de-8fa2-dd34061948d6,.e2d9bcae-ec71-421c-bcb2-927f1f157ff5{fill:none;stroke:#283c63;}.\36 507d983-493b-46de-8fa2-dd34061948d6,.e2d9bcae-ec71-421c-bcb2-927f1f157ff5{stroke-miterlimit:10;}.\35 8a1c104-4d7f-490b-8a96-48abe1936337,.e2d9bcae-ec71-421c-bcb2-927f1f157ff5{stroke-width:1.45px;}.\36 507d983-493b-46de-8fa2-dd34061948d6{stroke-width:1.29px;}</style></defs><title>newCalendar</title><g id="6d58769a-f998-431d-89c7-4bd1b35fe4c5" data-name="Layer 2"><g id="8307cadd-9f98-47c0-bbc6-901d63b82905" data-name="Layer 1"><g id="b41f903e-2b43-4ee4-9e79-9140462fa6a0" data-name="Group 8"><path id="2853836f-19ce-4b3c-8e5b-c2b8ede30b05" data-name="Rectangle 16" class="e2d9bcae-ec71-421c-bcb2-927f1f157ff5" d="M6.54,3.33H16.72a5.78,5.78,0,0,1,5.82,5.75v5.75a5.78,5.78,0,0,1-5.82,5.75H6.54A5.78,5.78,0,0,1,.72,14.83V9.08A5.78,5.78,0,0,1,6.54,3.33Z"/><path id="060a0c40-c987-48e2-8e35-f21086c0321f" data-name="Rectangle 18" class="6507d983-493b-46de-8fa2-dd34061948d6" d="M15.31.65h0a.66.66,0,0,1,.58.72V4.24a.66.66,0,0,1-.58.72h0a.66.66,0,0,1-.58-.72V1.37A.66.66,0,0,1,15.31.65Z"/><path id="8da6eb50-33cc-43dd-be63-41c0aca403af" data-name="Rectangle 18" class="6507d983-493b-46de-8fa2-dd34061948d6" d="M8,.65H8a.66.66,0,0,1,.58.72V4.24A.66.66,0,0,1,8,5H8a.66.66,0,0,1-.58-.72V1.37A.66.66,0,0,1,8,.65Z"/><line id="7bab5a66-6588-4a15-a22f-f228c1028c09" data-name="Line 1" class="58a1c104-4d7f-490b-8a96-48abe1936337" x1="0.91" y1="7.65" x2="22.72" y2="7.65"/></g></g></g></svg>